<?xml version="1.0" standalone="no"?>
<!DOCTYPE svg PUBLIC "-//W3C//DTD SVG 1.1//EN"
  "http://www.w3.org/Graphics/SVG/1.1/DTD/svg11.dtd">
<!-- Created with matplotlib (http://matplotlib.sourceforge.net/) -->
<svg width="576pt" height="576pt" viewBox="0 0 576 576"
   xmlns="http://www.w3.org/2000/svg"
   xmlns:xlink="http://www.w3.org/1999/xlink"
   version="1.1"
   id="svg1">
<g id="figure1">
<path style="fill: #ffffff; stroke: #ffffff; stroke-width: 1.0; stroke-linejoin: miter; stroke-linecap: square;  opacity: 1.0"  d="M0.0 576.0L576.0 576.0L576.0 0.0L0.0 0.0L0.0 576.0"/>
<g id="axes1">
<g id="LineCollection1">
<defs>
<path id="coll0_0_f28bf9d4a21d10ca1f15eb2a50bd84b5" d="M268.8 -290.88L534.4 -290.88"/>
<path id="coll0_1_d337b01c255cb5124de925fb342aa68d" d="M268.8 -290.88L211.2 -54.72"/>
<path id="coll0_2_47c3aa10eb6cd83dbb648193a8d81e22" d="M268.8 -290.88L28.8 -397.44"/>
<path id="coll0_3_d82f354314b91bfc019310f8fc77d799" d="M268.8 -290.88L435.2 -478.08"/>
<path id="coll0_4_fed1211bcaf5d15ccc6a50bff4d8f8d5" d="M268.8 -290.88L211.2 -524.16"/>
<path id="coll0_5_fa706dbb5d2ecd8b0d7b6ac959bce2b6" d="M268.8 -290.88L25.6 -187.2"/>
<path id="coll0_6_2299438c6c750c1f45e94f6b22c5df2d" d="M268.8 -290.88L435.2 -103.68"/>
</defs>
<defs>
  <clipPath id="pbe4efc98d9e478acb8fc4300d36c4f7c">
<rect x="0.0" y="0.0" width="576.0" height="576.0"/>
  </clipPath>
</defs><g clip-path="url(#pbe4efc98d9e478acb8fc4300d36c4f7c)"><use style="fill: none; stroke: #000000; stroke-width: 1.0; stroke-linejoin: miter; stroke-linecap: butt;  opacity: 1.0" xlink:href="#coll0_0_f28bf9d4a21d10ca1f15eb2a50bd84b5" x="0.000000" y="576.000000"/>
</g><g clip-path="url(#pbe4efc98d9e478acb8fc4300d36c4f7c)"><use style="fill: none; stroke: #000000; stroke-width: 1.0; stroke-linejoin: miter; stroke-linecap: butt;  opacity: 1.0" xlink:href="#coll0_1_d337b01c255cb5124de925fb342aa68d" x="0.000000" y="576.000000"/>
</g><g clip-path="url(#pbe4efc98d9e478acb8fc4300d36c4f7c)"><use style="fill: none; stroke: #000000; stroke-width: 1.0; stroke-linejoin: miter; stroke-linecap: butt;  opacity: 1.0" xlink:href="#coll0_2_47c3aa10eb6cd83dbb648193a8d81e22" x="0.000000" y="576.000000"/>
</g><g clip-path="url(#pbe4efc98d9e478acb8fc4300d36c4f7c)"><use style="fill: none; stroke: #000000; stroke-width: 1.0; stroke-linejoin: miter; stroke-linecap: butt;  opacity: 1.0" xlink:href="#coll0_3_d82f354314b91bfc019310f8fc77d799" x="0.000000" y="576.000000"/>
</g><g clip-path="url(#pbe4efc98d9e478acb8fc4300d36c4f7c)"><use style="fill: none; stroke: #000000; stroke-width: 1.0; stroke-linejoin: miter; stroke-linecap: butt;  opacity: 1.0" xlink:href="#coll0_4_fed1211bcaf5d15ccc6a50bff4d8f8d5" x="0.000000" y="576.000000"/>
</g><g clip-path="url(#pbe4efc98d9e478acb8fc4300d36c4f7c)"><use style="fill: none; stroke: #000000; stroke-width: 1.0; stroke-linejoin: miter; stroke-linecap: butt;  opacity: 1.0" xlink:href="#coll0_5_fa706dbb5d2ecd8b0d7b6ac959bce2b6" x="0.000000" y="576.000000"/>
</g><g clip-path="url(#pbe4efc98d9e478acb8fc4300d36c4f7c)"><use style="fill: none; stroke: #000000; stroke-width: 1.0; stroke-linejoin: miter; stroke-linecap: butt;  opacity: 1.0" xlink:href="#coll0_6_2299438c6c750c1f45e94f6b22c5df2d" x="0.000000" y="576.000000"/>
</g></g>
<g id="LineCollection2">
<defs>
<path id="coll1_0_f28bf9d4a21d10ca1f15eb2a50bd84b5" d="M268.8 -290.88L534.4 -290.88"/>
<path id="coll1_1_d337b01c255cb5124de925fb342aa68d" d="M268.8 -290.88L211.2 -54.72"/>
<path id="coll1_2_47c3aa10eb6cd83dbb648193a8d81e22" d="M268.8 -290.88L28.8 -397.44"/>
<path id="coll1_3_d82f354314b91bfc019310f8fc77d799" d="M268.8 -290.88L435.2 -478.08"/>
<path id="coll1_4_fed1211bcaf5d15ccc6a50bff4d8f8d5" d="M268.8 -290.88L211.2 -524.16"/>
<path id="coll1_5_fa706dbb5d2ecd8b0d7b6ac959bce2b6" d="M268.8 -290.88L25.6 -187.2"/>
<path id="coll1_6_2299438c6c750c1f45e94f6b22c5df2d" d="M268.8 -290.88L435.2 -103.68"/>
</defs>
<g clip-path="url(#pbe4efc98d9e478acb8fc4300d36c4f7c)"><use style="fill: none; stroke: #000000; stroke-width: 1.0; stroke-linejoin: miter; stroke-linecap: butt;  opacity: 1.0" xlink:href="#coll1_0_f28bf9d4a21d10ca1f15eb2a50bd84b5" x="0.000000" y="576.000000"/>
</g><g clip-path="url(#pbe4efc98d9e478acb8fc4300d36c4f7c)"><use style="fill: none; stroke: #000000; stroke-width: 1.0; stroke-linejoin: miter; stroke-linecap: butt;  opacity: 1.0" xlink:href="#coll1_1_d337b01c255cb5124de925fb342aa68d" x="0.000000" y="576.000000"/>
</g><g clip-path="url(#pbe4efc98d9e478acb8fc4300d36c4f7c)"><use style="fill: none; stroke: #000000; stroke-width: 1.0; stroke-linejoin: miter; stroke-linecap: butt;  opacity: 1.0" xlink:href="#coll1_2_47c3aa10eb6cd83dbb648193a8d81e22" x="0.000000" y="576.000000"/>
</g><g clip-path="url(#pbe4efc98d9e478acb8fc4300d36c4f7c)"><use style="fill: none; stroke: #000000; stroke-width: 1.0; stroke-linejoin: miter; stroke-linecap: butt;  opacity: 1.0" xlink:href="#coll1_3_d82f354314b91bfc019310f8fc77d799" x="0.000000" y="576.000000"/>
</g><g clip-path="url(#pbe4efc98d9e478acb8fc4300d36c4f7c)"><use style="fill: none; stroke: #000000; stroke-width: 1.0; stroke-linejoin: miter; stroke-linecap: butt;  opacity: 1.0" xlink:href="#coll1_4_fed1211bcaf5d15ccc6a50bff4d8f8d5" x="0.000000" y="576.000000"/>
</g><g clip-path="url(#pbe4efc98d9e478acb8fc4300d36c4f7c)"><use style="fill: none; stroke: #000000; stroke-width: 1.0; stroke-linejoin: miter; stroke-linecap: butt;  opacity: 1.0" xlink:href="#coll1_5_fa706dbb5d2ecd8b0d7b6ac959bce2b6" x="0.000000" y="576.000000"/>
</g><g clip-path="url(#pbe4efc98d9e478acb8fc4300d36c4f7c)"><use style="fill: none; stroke: #000000; stroke-width: 1.0; stroke-linejoin: miter; stroke-linecap: butt;  opacity: 1.0" xlink:href="#coll1_6_2299438c6c750c1f45e94f6b22c5df2d" x="0.000000" y="576.000000"/>
</g></g>
<g id="LineCollection3">
<defs>
<path id="coll2_0_2299438c6c750c1f45e94f6b22c5df2d" d="M268.8 -290.88L435.2 -103.68"/>
<path id="coll2_1_f28bf9d4a21d10ca1f15eb2a50bd84b5" d="M268.8 -290.88L534.4 -290.88"/>
<path id="coll2_2_d337b01c255cb5124de925fb342aa68d" d="M268.8 -290.88L211.2 -54.72"/>
<path id="coll2_3_fed1211bcaf5d15ccc6a50bff4d8f8d5" d="M268.8 -290.88L211.2 -524.16"/>
<path id="coll2_4_47c3aa10eb6cd83dbb648193a8d81e22" d="M268.8 -290.88L28.8 -397.44"/>
<path id="coll2_5_d82f354314b91bfc019310f8fc77d799" d="M268.8 -290.88L435.2 -478.08"/>
<path id="coll2_6_fa706dbb5d2ecd8b0d7b6ac959bce2b6" d="M268.8 -290.88L25.6 -187.2"/>
</defs>
<g clip-path="url(#pbe4efc98d9e478acb8fc4300d36c4f7c)"><use style="fill: none; stroke: #000000; stroke-width: 1.0; stroke-linejoin: miter; stroke-linecap: butt;  opacity: 1.0" xlink:href="#coll2_0_2299438c6c750c1f45e94f6b22c5df2d" x="0.000000" y="576.000000"/>
</g><g clip-path="url(#pbe4efc98d9e478acb8fc4300d36c4f7c)"><use style="fill: none; stroke: #000000; stroke-width: 1.0; stroke-linejoin: miter; stroke-linecap: butt;  opacity: 1.0" xlink:href="#coll2_1_f28bf9d4a21d10ca1f15eb2a50bd84b5" x="0.000000" y="576.000000"/>
</g><g clip-path="url(#pbe4efc98d9e478acb8fc4300d36c4f7c)"><use style="fill: none; stroke: #000000; stroke-width: 1.0; stroke-linejoin: miter; stroke-linecap: butt;  opacity: 1.0" xlink:href="#coll2_2_d337b01c255cb5124de925fb342aa68d" x="0.000000" y="576.000000"/>
</g><g clip-path="url(#pbe4efc98d9e478acb8fc4300d36c4f7c)"><use style="fill: none; stroke: #000000; stroke-width: 1.0; stroke-linejoin: miter; stroke-linecap: butt;  opacity: 1.0" xlink:href="#coll2_3_fed1211bcaf5d15ccc6a50bff4d8f8d5" x="0.000000" y="576.000000"/>
</g><g clip-path="url(#pbe4efc98d9e478acb8fc4300d36c4f7c)"><use style="fill: none; stroke: #000000; stroke-width: 1.0; stroke-linejoin: miter; stroke-linecap: butt;  opacity: 1.0" xlink:href="#coll2_4_47c3aa10eb6cd83dbb648193a8d81e22" x="0.000000" y="576.000000"/>
</g><g clip-path="url(#pbe4efc98d9e478acb8fc4300d36c4f7c)"><use style="fill: none; stroke: #000000; stroke-width: 1.0; stroke-linejoin: miter; stroke-linecap: butt;  opacity: 1.0" xlink:href="#coll2_5_d82f354314b91bfc019310f8fc77d799" x="0.000000" y="576.000000"/>
</g><g clip-path="url(#pbe4efc98d9e478acb8fc4300d36c4f7c)"><use style="fill: none; stroke: #000000; stroke-width: 1.0; stroke-linejoin: miter; stroke-linecap: butt;  opacity: 1.0" xlink:href="#coll2_6_fa706dbb5d2ecd8b0d7b6ac959bce2b6" x="0.000000" y="576.000000"/>
</g></g>
<g id="LineCollection4">
<defs>
<path id="coll3_0_2299438c6c750c1f45e94f6b22c5df2d" d="M268.8 -290.88L435.2 -103.68"/>
<path id="coll3_1_f28bf9d4a21d10ca1f15eb2a50bd84b5" d="M268.8 -290.88L534.4 -290.88"/>
<path id="coll3_2_d337b01c255cb5124de925fb342aa68d" d="M268.8 -290.88L211.2 -54.72"/>
<path id="coll3_3_fed1211bcaf5d15ccc6a50bff4d8f8d5" d="M268.8 -290.88L211.2 -524.16"/>
<path id="coll3_4_47c3aa10eb6cd83dbb648193a8d81e22" d="M268.8 -290.88L28.8 -397.44"/>
<path id="coll3_5_d82f354314b91bfc019310f8fc77d799" d="M268.8 -290.88L435.2 -478.08"/>
<path id="coll3_6_fa706dbb5d2ecd8b0d7b6ac959bce2b6" d="M268.8 -290.88L25.6 -187.2"/>
</defs>
<g clip-path="url(#pbe4efc98d9e478acb8fc4300d36c4f7c)"><use style="fill: none; stroke: #000000; stroke-width: 1.0; stroke-linejoin: miter; stroke-linecap: butt;  opacity: 1.0" xlink:href="#coll3_0_2299438c6c750c1f45e94f6b22c5df2d" x="0.000000" y="576.000000"/>
</g><g clip-path="url(#pbe4efc98d9e478acb8fc4300d36c4f7c)"><use style="fill: none; stroke: #000000; stroke-width: 1.0; stroke-linejoin: miter; stroke-linecap: butt;  opacity: 1.0" xlink:href="#coll3_1_f28bf9d4a21d10ca1f15eb2a50bd84b5" x="0.000000" y="576.000000"/>
</g><g clip-path="url(#pbe4efc98d9e478acb8fc4300d36c4f7c)"><use style="fill: none; stroke: #000000; stroke-width: 1.0; stroke-linejoin: miter; stroke-linecap: butt;  opacity: 1.0" xlink:href="#coll3_2_d337b01c255cb5124de925fb342aa68d" x="0.000000" y="576.000000"/>
</g><g clip-path="url(#pbe4efc98d9e478acb8fc4300d36c4f7c)"><use style="fill: none; stroke: #000000; stroke-width: 1.0; stroke-linejoin: miter; stroke-linecap: butt;  opacity: 1.0" xlink:href="#coll3_3_fed1211bcaf5d15ccc6a50bff4d8f8d5" x="0.000000" y="576.000000"/>
</g><g clip-path="url(#pbe4efc98d9e478acb8fc4300d36c4f7c)"><use style="fill: none; stroke: #000000; stroke-width: 1.0; stroke-linejoin: miter; stroke-linecap: butt;  opacity: 1.0" xlink:href="#coll3_4_47c3aa10eb6cd83dbb648193a8d81e22" x="0.000000" y="576.000000"/>
</g><g clip-path="url(#pbe4efc98d9e478acb8fc4300d36c4f7c)"><use style="fill: none; stroke: #000000; stroke-width: 1.0; stroke-linejoin: miter; stroke-linecap: butt;  opacity: 1.0" xlink:href="#coll3_5_d82f354314b91bfc019310f8fc77d799" x="0.000000" y="576.000000"/>
</g><g clip-path="url(#pbe4efc98d9e478acb8fc4300d36c4f7c)"><use style="fill: none; stroke: #000000; stroke-width: 1.0; stroke-linejoin: miter; stroke-linecap: butt;  opacity: 1.0" xlink:href="#coll3_6_fa706dbb5d2ecd8b0d7b6ac959bce2b6" x="0.000000" y="576.000000"/>
</g></g>
<g id="LineCollection5">
<defs>
<path id="coll4_0_47c3aa10eb6cd83dbb648193a8d81e22" d="M268.8 -290.88L28.8 -397.44"/>
<path id="coll4_1_d82f354314b91bfc019310f8fc77d799" d="M268.8 -290.88L435.2 -478.08"/>
<path id="coll4_2_fed1211bcaf5d15ccc6a50bff4d8f8d5" d="M268.8 -290.88L211.2 -524.16"/>
<path id="coll4_3_fa706dbb5d2ecd8b0d7b6ac959bce2b6" d="M268.8 -290.88L25.6 -187.2"/>
<path id="coll4_4_2299438c6c750c1f45e94f6b22c5df2d" d="M268.8 -290.88L435.2 -103.68"/>
<path id="coll4_5_f28bf9d4a21d10ca1f15eb2a50bd84b5" d="M268.8 -290.88L534.4 -290.88"/>
<path id="coll4_6_d337b01c255cb5124de925fb342aa68d" d="M268.8 -290.88L211.2 -54.72"/>
</defs>
<g clip-path="url(#pbe4efc98d9e478acb8fc4300d36c4f7c)"><use style="fill: none; stroke: #000000; stroke-width: 1.0; stroke-linejoin: miter; stroke-linecap: butt;  opacity: 1.0" xlink:href="#coll4_0_47c3aa10eb6cd83dbb648193a8d81e22" x="0.000000" y="576.000000"/>
</g><g clip-path="url(#pbe4efc98d9e478acb8fc4300d36c4f7c)"><use style="fill: none; stroke: #000000; stroke-width: 1.0; stroke-linejoin: miter; stroke-linecap: butt;  opacity: 1.0" xlink:href="#coll4_1_d82f354314b91bfc019310f8fc77d799" x="0.000000" y="576.000000"/>
</g><g clip-path="url(#pbe4efc98d9e478acb8fc4300d36c4f7c)"><use style="fill: none; stroke: #000000; stroke-width: 1.0; stroke-linejoin: miter; stroke-linecap: butt;  opacity: 1.0" xlink:href="#coll4_2_fed1211bcaf5d15ccc6a50bff4d8f8d5" x="0.000000" y="576.000000"/>
</g><g clip-path="url(#pbe4efc98d9e478acb8fc4300d36c4f7c)"><use style="fill: none; stroke: #000000; stroke-width: 1.0; stroke-linejoin: miter; stroke-linecap: butt;  opacity: 1.0" xlink:href="#coll4_3_fa706dbb5d2ecd8b0d7b6ac959bce2b6" x="0.000000" y="576.000000"/>
</g><g clip-path="url(#pbe4efc98d9e478acb8fc4300d36c4f7c)"><use style="fill: none; stroke: #000000; stroke-width: 1.0; stroke-linejoin: miter; stroke-linecap: butt;  opacity: 1.0" xlink:href="#coll4_4_2299438c6c750c1f45e94f6b22c5df2d" x="0.000000" y="576.000000"/>
</g><g clip-path="url(#pbe4efc98d9e478acb8fc4300d36c4f7c)"><use style="fill: none; stroke: #000000; stroke-width: 1.0; stroke-linejoin: miter; stroke-linecap: butt;  opacity: 1.0" xlink:href="#coll4_5_f28bf9d4a21d10ca1f15eb2a50bd84b5" x="0.000000" y="576.000000"/>
</g><g clip-path="url(#pbe4efc98d9e478acb8fc4300d36c4f7c)"><use style="fill: none; stroke: #000000; stroke-width: 1.0; stroke-linejoin: miter; stroke-linecap: butt;  opacity: 1.0" xlink:href="#coll4_6_d337b01c255cb5124de925fb342aa68d" x="0.000000" y="576.000000"/>
</g></g>
<g id="LineCollection6">
<defs>
<path id="coll5_0_47c3aa10eb6cd83dbb648193a8d81e22" d="M268.8 -290.88L28.8 -397.44"/>
<path id="coll5_1_d82f354314b91bfc019310f8fc77d799" d="M268.8 -290.88L435.2 -478.08"/>
<path id="coll5_2_fed1211bcaf5d15ccc6a50bff4d8f8d5" d="M268.8 -290.88L211.2 -524.16"/>
<path id="coll5_3_fa706dbb5d2ecd8b0d7b6ac959bce2b6" d="M268.8 -290.88L25.6 -187.2"/>
<path id="coll5_4_2299438c6c750c1f45e94f6b22c5df2d" d="M268.8 -290.88L435.2 -103.68"/>
<path id="coll5_5_f28bf9d4a21d10ca1f15eb2a50bd84b5" d="M268.8 -290.88L534.4 -290.88"/>
<path id="coll5_6_d337b01c255cb5124de925fb342aa68d" d="M268.8 -290.88L211.2 -54.72"/>
</defs>
<g clip-path="url(#pbe4efc98d9e478acb8fc4300d36c4f7c)"><use style="fill: none; stroke: #000000; stroke-width: 1.0; stroke-linejoin: miter; stroke-linecap: butt;  opacity: 1.0" xlink:href="#coll5_0_47c3aa10eb6cd83dbb648193a8d81e22" x="0.000000" y="576.000000"/>
</g><g clip-path="url(#pbe4efc98d9e478acb8fc4300d36c4f7c)"><use style="fill: none; stroke: #000000; stroke-width: 1.0; stroke-linejoin: miter; stroke-linecap: butt;  opacity: 1.0" xlink:href="#coll5_1_d82f354314b91bfc019310f8fc77d799" x="0.000000" y="576.000000"/>
</g><g clip-path="url(#pbe4efc98d9e478acb8fc4300d36c4f7c)"><use style="fill: none; stroke: #000000; stroke-width: 1.0; stroke-linejoin: miter; stroke-linecap: butt;  opacity: 1.0" xlink:href="#coll5_2_fed1211bcaf5d15ccc6a50bff4d8f8d5" x="0.000000" y="576.000000"/>
</g><g clip-path="url(#pbe4efc98d9e478acb8fc4300d36c4f7c)"><use style="fill: none; stroke: #000000; stroke-width: 1.0; stroke-linejoin: miter; stroke-linecap: butt;  opacity: 1.0" xlink:href="#coll5_3_fa706dbb5d2ecd8b0d7b6ac959bce2b6" x="0.000000" y="576.000000"/>
</g><g clip-path="url(#pbe4efc98d9e478acb8fc4300d36c4f7c)"><use style="fill: none; stroke: #000000; stroke-width: 1.0; stroke-linejoin: miter; stroke-linecap: butt;  opacity: 1.0" xlink:href="#coll5_4_2299438c6c750c1f45e94f6b22c5df2d" x="0.000000" y="576.000000"/>
</g><g clip-path="url(#pbe4efc98d9e478acb8fc4300d36c4f7c)"><use style="fill: none; stroke: #000000; stroke-width: 1.0; stroke-linejoin: miter; stroke-linecap: butt;  opacity: 1.0" xlink:href="#coll5_5_f28bf9d4a21d10ca1f15eb2a50bd84b5" x="0.000000" y="576.000000"/>
</g><g clip-path="url(#pbe4efc98d9e478acb8fc4300d36c4f7c)"><use style="fill: none; stroke: #000000; stroke-width: 1.0; stroke-linejoin: miter; stroke-linecap: butt;  opacity: 1.0" xlink:href="#coll5_6_d337b01c255cb5124de925fb342aa68d" x="0.000000" y="576.000000"/>
</g></g>
<g id="RegularPolyCollection1">
<defs>
<path id="coll6_0_3107f3b73ffdf62ae4cc703e72acc63d" d="M1.78032240922 12.4894113236L5.55262757714 11.3279861441
L8.78140287038 9.0576987541L11.150593267 5.90078070133
L12.428285904 2.16625312035L12.4894113236 -1.78032240922
L11.3279861441 -5.55262757714L9.0576987541 -8.78140287038
L5.90078070133 -11.150593267L2.16625312035 -12.428285904
L-1.78032240922 -12.4894113236L-5.55262757714 -11.3279861441
L-8.78140287038 -9.0576987541L-11.150593267 -5.90078070133
L-12.428285904 -2.16625312035L-12.4894113236 1.78032240922
L-11.3279861441 5.55262757714L-9.0576987541 8.78140287038
L-5.90078070133 11.150593267L-2.16625312035 12.428285904
L1.78032240922 12.4894113236"/>
</defs>
<g clip-path="url(#pbe4efc98d9e478acb8fc4300d36c4f7c)"><use style="fill: #ff0000; stroke: #000000; stroke-width: 1.0; stroke-linejoin: miter; stroke-linecap: butt;  opacity: 0.8" xlink:href="#coll6_0_3107f3b73ffdf62ae4cc703e72acc63d" x="268.800000" y="285.120000"/>
</g></g>
<g id="RegularPolyCollection2">
<defs>
<path id="coll7_0_3107f3b73ffdf62ae4cc703e72acc63d" d="M1.78032240922 12.4894113236L5.55262757714 11.3279861441
L8.78140287038 9.0576987541L11.150593267 5.90078070133
L12.428285904 2.16625312035L12.4894113236 -1.78032240922
L11.3279861441 -5.55262757714L9.0576987541 -8.78140287038
L5.90078070133 -11.150593267L2.16625312035 -12.428285904
L-1.78032240922 -12.4894113236L-5.55262757714 -11.3279861441
L-8.78140287038 -9.0576987541L-11.150593267 -5.90078070133
L-12.428285904 -2.16625312035L-12.4894113236 1.78032240922
L-11.3279861441 5.55262757714L-9.0576987541 8.78140287038
L-5.90078070133 11.150593267L-2.16625312035 12.428285904
L1.78032240922 12.4894113236"/>
</defs>
<g clip-path="url(#pbe4efc98d9e478acb8fc4300d36c4f7c)"><use style="fill: #008000; stroke: #000000; stroke-width: 1.0; stroke-linejoin: miter; stroke-linecap: butt;  opacity: 0.8" xlink:href="#coll7_0_3107f3b73ffdf62ae4cc703e72acc63d" x="534.400000" y="285.120000"/>
</g><g clip-path="url(#pbe4efc98d9e478acb8fc4300d36c4f7c)"><use style="fill: #008000; stroke: #000000; stroke-width: 1.0; stroke-linejoin: miter; stroke-linecap: butt;  opacity: 0.8" xlink:href="#coll7_0_3107f3b73ffdf62ae4cc703e72acc63d" x="211.200000" y="521.280000"/>
</g><g clip-path="url(#pbe4efc98d9e478acb8fc4300d36c4f7c)"><use style="fill: #008000; stroke: #000000; stroke-width: 1.0; stroke-linejoin: miter; stroke-linecap: butt;  opacity: 0.8" xlink:href="#coll7_0_3107f3b73ffdf62ae4cc703e72acc63d" x="28.800000" y="178.560000"/>
</g><g clip-path="url(#pbe4efc98d9e478acb8fc4300d36c4f7c)"><use style="fill: #008000; stroke: #000000; stroke-width: 1.0; stroke-linejoin: miter; stroke-linecap: butt;  opacity: 0.8" xlink:href="#coll7_0_3107f3b73ffdf62ae4cc703e72acc63d" x="435.200000" y="97.920000"/>
</g><g clip-path="url(#pbe4efc98d9e478acb8fc4300d36c4f7c)"><use style="fill: #008000; stroke: #000000; stroke-width: 1.0; stroke-linejoin: miter; stroke-linecap: butt;  opacity: 0.8" xlink:href="#coll7_0_3107f3b73ffdf62ae4cc703e72acc63d" x="211.200000" y="51.840000"/>
</g><g clip-path="url(#pbe4efc98d9e478acb8fc4300d36c4f7c)"><use style="fill: #008000; stroke: #000000; stroke-width: 1.0; stroke-linejoin: miter; stroke-linecap: butt;  opacity: 0.8" xlink:href="#coll7_0_3107f3b73ffdf62ae4cc703e72acc63d" x="25.600000" y="388.800000"/>
</g><g clip-path="url(#pbe4efc98d9e478acb8fc4300d36c4f7c)"><use style="fill: #008000; stroke: #000000; stroke-width: 1.0; stroke-linejoin: miter; stroke-linecap: butt;  opacity: 0.8" xlink:href="#coll7_0_3107f3b73ffdf62ae4cc703e72acc63d" x="435.200000" y="472.320000"/>
</g></g>
<g id="RegularPolyCollection3">
<defs>
<path id="coll8_0_3107f3b73ffdf62ae4cc703e72acc63d" d="M1.78032240922 12.4894113236L5.55262757714 11.3279861441
L8.78140287038 9.0576987541L11.150593267 5.90078070133
L12.428285904 2.16625312035L12.4894113236 -1.78032240922
L11.3279861441 -5.55262757714L9.0576987541 -8.78140287038
L5.90078070133 -11.150593267L2.16625312035 -12.428285904
L-1.78032240922 -12.4894113236L-5.55262757714 -11.3279861441
L-8.78140287038 -9.0576987541L-11.150593267 -5.90078070133
L-12.428285904 -2.16625312035L-12.4894113236 1.78032240922
L-11.3279861441 5.55262757714L-9.0576987541 8.78140287038
L-5.90078070133 11.150593267L-2.16625312035 12.428285904
L1.78032240922 12.4894113236"/>
</defs>
<g clip-path="url(#pbe4efc98d9e478acb8fc4300d36c4f7c)"><use style="fill: #ff0000; stroke: #000000; stroke-width: 1.0; stroke-linejoin: miter; stroke-linecap: butt;  opacity: 0.8" xlink:href="#coll8_0_3107f3b73ffdf62ae4cc703e72acc63d" x="268.800000" y="285.120000"/>
</g></g>
<g id="RegularPolyCollection4">
<defs>
<path id="coll9_0_3107f3b73ffdf62ae4cc703e72acc63d" d="M1.78032240922 12.4894113236L5.55262757714 11.3279861441
L8.78140287038 9.0576987541L11.150593267 5.90078070133
L12.428285904 2.16625312035L12.4894113236 -1.78032240922
L11.3279861441 -5.55262757714L9.0576987541 -8.78140287038
L5.90078070133 -11.150593267L2.16625312035 -12.428285904
L-1.78032240922 -12.4894113236L-5.55262757714 -11.3279861441
L-8.78140287038 -9.0576987541L-11.150593267 -5.90078070133
L-12.428285904 -2.16625312035L-12.4894113236 1.78032240922
L-11.3279861441 5.55262757714L-9.0576987541 8.78140287038
L-5.90078070133 11.150593267L-2.16625312035 12.428285904
L1.78032240922 12.4894113236"/>
</defs>
<g clip-path="url(#pbe4efc98d9e478acb8fc4300d36c4f7c)"><use style="fill: #008000; stroke: #000000; stroke-width: 1.0; stroke-linejoin: miter; stroke-linecap: butt;  opacity: 0.8" xlink:href="#coll9_0_3107f3b73ffdf62ae4cc703e72acc63d" x="435.200000" y="472.320000"/>
</g><g clip-path="url(#pbe4efc98d9e478acb8fc4300d36c4f7c)"><use style="fill: #008000; stroke: #000000; stroke-width: 1.0; stroke-linejoin: miter; stroke-linecap: butt;  opacity: 0.8" xlink:href="#coll9_0_3107f3b73ffdf62ae4cc703e72acc63d" x="534.400000" y="285.120000"/>
</g><g clip-path="url(#pbe4efc98d9e478acb8fc4300d36c4f7c)"><use style="fill: #008000; stroke: #000000; stroke-width: 1.0; stroke-linejoin: miter; stroke-linecap: butt;  opacity: 0.8" xlink:href="#coll9_0_3107f3b73ffdf62ae4cc703e72acc63d" x="211.200000" y="521.280000"/>
</g><g clip-path="url(#pbe4efc98d9e478acb8fc4300d36c4f7c)"><use style="fill: #008000; stroke: #000000; stroke-width: 1.0; stroke-linejoin: miter; stroke-linecap: butt;  opacity: 0.8" xlink:href="#coll9_0_3107f3b73ffdf62ae4cc703e72acc63d" x="211.200000" y="51.840000"/>
</g><g clip-path="url(#pbe4efc98d9e478acb8fc4300d36c4f7c)"><use style="fill: #008000; stroke: #000000; stroke-width: 1.0; stroke-linejoin: miter; stroke-linecap: butt;  opacity: 0.8" xlink:href="#coll9_0_3107f3b73ffdf62ae4cc703e72acc63d" x="28.800000" y="178.560000"/>
</g><g clip-path="url(#pbe4efc98d9e478acb8fc4300d36c4f7c)"><use style="fill: #008000; stroke: #000000; stroke-width: 1.0; stroke-linejoin: miter; stroke-linecap: butt;  opacity: 0.8" xlink:href="#coll9_0_3107f3b73ffdf62ae4cc703e72acc63d" x="435.200000" y="97.920000"/>
</g><g clip-path="url(#pbe4efc98d9e478acb8fc4300d36c4f7c)"><use style="fill: #008000; stroke: #000000; stroke-width: 1.0; stroke-linejoin: miter; stroke-linecap: butt;  opacity: 0.8" xlink:href="#coll9_0_3107f3b73ffdf62ae4cc703e72acc63d" x="25.600000" y="388.800000"/>
</g></g>
<g id="RegularPolyCollection5">
<defs>
<path id="colla_0_3107f3b73ffdf62ae4cc703e72acc63d" d="M1.78032240922 12.4894113236L5.55262757714 11.3279861441
L8.78140287038 9.0576987541L11.150593267 5.90078070133
L12.428285904 2.16625312035L12.4894113236 -1.78032240922
L11.3279861441 -5.55262757714L9.0576987541 -8.78140287038
L5.90078070133 -11.150593267L2.16625312035 -12.428285904
L-1.78032240922 -12.4894113236L-5.55262757714 -11.3279861441
L-8.78140287038 -9.0576987541L-11.150593267 -5.90078070133
L-12.428285904 -2.16625312035L-12.4894113236 1.78032240922
L-11.3279861441 5.55262757714L-9.0576987541 8.78140287038
L-5.90078070133 11.150593267L-2.16625312035 12.428285904
L1.78032240922 12.4894113236"/>
</defs>
<g clip-path="url(#pbe4efc98d9e478acb8fc4300d36c4f7c)"><use style="fill: #ff0000; stroke: #000000; stroke-width: 1.0; stroke-linejoin: miter; stroke-linecap: butt;  opacity: 0.8" xlink:href="#colla_0_3107f3b73ffdf62ae4cc703e72acc63d" x="268.800000" y="285.120000"/>
</g></g>
<g id="RegularPolyCollection6">
<defs>
<path id="collb_0_3107f3b73ffdf62ae4cc703e72acc63d" d="M1.78032240922 12.4894113236L5.55262757714 11.3279861441
L8.78140287038 9.0576987541L11.150593267 5.90078070133
L12.428285904 2.16625312035L12.4894113236 -1.78032240922
L11.3279861441 -5.55262757714L9.0576987541 -8.78140287038
L5.90078070133 -11.150593267L2.16625312035 -12.428285904
L-1.78032240922 -12.4894113236L-5.55262757714 -11.3279861441
L-8.78140287038 -9.0576987541L-11.150593267 -5.90078070133
L-12.428285904 -2.16625312035L-12.4894113236 1.78032240922
L-11.3279861441 5.55262757714L-9.0576987541 8.78140287038
L-5.90078070133 11.150593267L-2.16625312035 12.428285904
L1.78032240922 12.4894113236"/>
</defs>
<g clip-path="url(#pbe4efc98d9e478acb8fc4300d36c4f7c)"><use style="fill: #008000; stroke: #000000; stroke-width: 1.0; stroke-linejoin: miter; stroke-linecap: butt;  opacity: 0.8" xlink:href="#collb_0_3107f3b73ffdf62ae4cc703e72acc63d" x="28.800000" y="178.560000"/>
</g><g clip-path="url(#pbe4efc98d9e478acb8fc4300d36c4f7c)"><use style="fill: #008000; stroke: #000000; stroke-width: 1.0; stroke-linejoin: miter; stroke-linecap: butt;  opacity: 0.8" xlink:href="#collb_0_3107f3b73ffdf62ae4cc703e72acc63d" x="435.200000" y="97.920000"/>
</g><g clip-path="url(#pbe4efc98d9e478acb8fc4300d36c4f7c)"><use style="fill: #008000; stroke: #000000; stroke-width: 1.0; stroke-linejoin: miter; stroke-linecap: butt;  opacity: 0.8" xlink:href="#collb_0_3107f3b73ffdf62ae4cc703e72acc63d" x="211.200000" y="51.840000"/>
</g><g clip-path="url(#pbe4efc98d9e478acb8fc4300d36c4f7c)"><use style="fill: #008000; stroke: #000000; stroke-width: 1.0; stroke-linejoin: miter; stroke-linecap: butt;  opacity: 0.8" xlink:href="#collb_0_3107f3b73ffdf62ae4cc703e72acc63d" x="25.600000" y="388.800000"/>
</g><g clip-path="url(#pbe4efc98d9e478acb8fc4300d36c4f7c)"><use style="fill: #008000; stroke: #000000; stroke-width: 1.0; stroke-linejoin: miter; stroke-linecap: butt;  opacity: 0.8" xlink:href="#collb_0_3107f3b73ffdf62ae4cc703e72acc63d" x="435.200000" y="472.320000"/>
</g><g clip-path="url(#pbe4efc98d9e478acb8fc4300d36c4f7c)"><use style="fill: #008000; stroke: #000000; stroke-width: 1.0; stroke-linejoin: miter; stroke-linecap: butt;  opacity: 0.8" xlink:href="#collb_0_3107f3b73ffdf62ae4cc703e72acc63d" x="534.400000" y="285.120000"/>
</g><g clip-path="url(#pbe4efc98d9e478acb8fc4300d36c4f7c)"><use style="fill: #008000; stroke: #000000; stroke-width: 1.0; stroke-linejoin: miter; stroke-linecap: butt;  opacity: 0.8" xlink:href="#collb_0_3107f3b73ffdf62ae4cc703e72acc63d" x="211.200000" y="521.280000"/>
</g></g>
<defs>
<path id="c_95f14088edd5858aea2c3b4aa58e4de2" d="M31.78125 -66.40625q-7.609375 0.0 -11.453125 7.5q-3.828125 7.484375 -3.828125 22.53125q0.0 14.984375 3.828125 22.484375q3.84375 7.5 11.453125 7.5q7.671875 0.0 11.5 -7.5q3.84375 -7.5 3.84375 -22.484375q0.0 -15.046875 -3.84375 -22.53125q-3.828125 -7.5 -11.5 -7.5M31.78125 -74.21875q12.265625 0.0 18.734375 9.703125q6.46875 9.6875 6.46875 28.140625q0.0 18.40625 -6.46875 28.109375q-6.46875 9.6875 -18.734375 9.6875q-12.25 0.0 -18.71875 -9.6875q-6.46875 -9.703125 -6.46875 -28.109375q0.0 -18.453125 6.46875 -28.140625q6.46875 -9.703125 18.71875 -9.703125"/>
</defs>
<g style="fill: #000000; opacity: 1.0" transform="translate(265.7765625,289.4871875)scale(0.12)">
<use xlink:href="#c_95f14088edd5858aea2c3b4aa58e4de2"/>
</g>
<defs>
<path id="c_2322e4f977aa11305e2465866d88750f" d="M12.40625 -8.296875l16.109375 0.0l0.0 -55.625l-17.53125 3.515625l0.0 -8.984375l17.4375 -3.515625l9.859375 0.0l0.0 64.609375l16.109375 0.0l0.0 8.296875l-41.984375 0.0z"/>
</defs>
<g style="fill: #000000; opacity: 1.0" transform="translate(531.790625,289.495)scale(0.12)">
<use xlink:href="#c_2322e4f977aa11305e2465866d88750f"/>
</g>
<defs>
<path id="c_eaed548a39c8bfc1ad9c7a767102867e" d="M19.1875 -8.296875l34.421875 0.0l0.0 8.296875l-46.28125 0.0l0.0 -8.296875q5.609375 -5.8125 15.296875 -15.59375q9.703125 -9.796875 12.1875 -12.640625q4.734375 -5.3125 6.609375 -9.0q1.890625 -3.6875 1.890625 -7.25q0.0 -5.8125 -4.078125 -9.46875q-4.078125 -3.671875 -10.625 -3.671875q-4.640625 0.0 -9.796875 1.609375q-5.140625 1.609375 -11.0 4.890625l0.0 -9.96875q5.953125 -2.390625 11.125 -3.609375q5.1875 -1.21875 9.484375 -1.21875q11.328125 0.0 18.0625 5.671875q6.734375 5.65625 6.734375 15.125q0.0 4.5 -1.6875 8.53125q-1.671875 4.015625 -6.125 9.484375q-1.21875 1.421875 -7.765625 8.1875q-6.53125 6.765625 -18.453125 18.921875"/>
</defs>
<g style="fill: #000000; opacity: 1.0" transform="translate(208.41875,525.733125)scale(0.12)">
<use xlink:href="#c_eaed548a39c8bfc1ad9c7a767102867e"/>
</g>
<defs>
<path id="c_1a789725981e3580f6e795985204066c" d="M40.578125 -39.3125q7.078125 1.515625 11.046875 6.3125q3.984375 4.78125 3.984375 11.8125q0.0 10.78125 -7.421875 16.703125q-7.421875 5.90625 -21.09375 5.90625q-4.578125 0.0 -9.4375 -0.90625q-4.859375 -0.90625 -10.03125 -2.71875l0.0 -9.515625q4.09375 2.390625 8.96875 3.609375q4.890625 1.21875 10.21875 1.21875q9.265625 0.0 14.125 -3.65625q4.859375 -3.65625 4.859375 -10.640625q0.0 -6.453125 -4.515625 -10.078125q-4.515625 -3.640625 -12.5625 -3.640625l-8.5 0.0l0.0 -8.109375l8.890625 0.0q7.265625 0.0 11.125 -2.90625q3.859375 -2.90625 3.859375 -8.375q0.0 -5.609375 -3.984375 -8.609375q-3.96875 -3.015625 -11.390625 -3.015625q-4.0625 0.0 -8.703125 0.890625q-4.640625 0.875 -10.203125 2.71875l0.0 -8.78125q5.625 -1.5625 10.53125 -2.34375q4.90625 -0.78125 9.25 -0.78125q11.234375 0.0 17.765625 5.109375q6.546875 5.09375 6.546875 13.78125q0.0 6.0625 -3.46875 10.234375q-3.46875 4.171875 -9.859375 5.78125"/>
</defs>
<g style="fill: #000000; opacity: 1.0" transform="translate(25.925,182.9271875)scale(0.12)">
<use xlink:href="#c_1a789725981e3580f6e795985204066c"/>
</g>
<defs>
<path id="c_47a349c5fab6f63bcee0b405ba445c6f" d="M37.796875 -64.3125l-24.90625 38.921875l24.90625 0.0zM35.203125 -72.90625l12.40625 0.0l0.0 47.515625l10.40625 0.0l0.0 8.203125l-10.40625 0.0l0.0 17.1875l-9.8125 0.0l0.0 -17.1875l-32.90625 0.0l0.0 -9.515625z"/>
</defs>
<g style="fill: #000000; opacity: 1.0" transform="translate(432.0125,102.295)scale(0.12)">
<use xlink:href="#c_47a349c5fab6f63bcee0b405ba445c6f"/>
</g>
<defs>
<path id="c_2f869442ca5f4cfa589132f61f547ba5" d="M10.796875 -72.90625l38.71875 0.0l0.0 8.3125l-29.6875 0.0l0.0 17.859375q2.140625 -0.734375 4.28125 -1.09375q2.15625 -0.359375 4.3125 -0.359375q12.203125 0.0 19.328125 6.6875q7.140625 6.6875 7.140625 18.109375q0.0 11.765625 -7.328125 18.296875q-7.328125 6.515625 -20.65625 6.515625q-4.59375 0.0 -9.359375 -0.78125q-4.75 -0.78125 -9.828125 -2.34375l0.0 -9.921875q4.390625 2.390625 9.078125 3.5625q4.6875 1.171875 9.90625 1.171875q8.453125 0.0 13.375 -4.4375q4.9375 -4.4375 4.9375 -12.0625q0.0 -7.609375 -4.9375 -12.046875q-4.921875 -4.453125 -13.375 -4.453125q-3.953125 0.0 -7.890625 0.875q-3.921875 0.875 -8.015625 2.734375z"/>
</defs>
<g style="fill: #000000; opacity: 1.0" transform="translate(208.3640625,56.1290625)scale(0.12)">
<use xlink:href="#c_2f869442ca5f4cfa589132f61f547ba5"/>
</g>
<defs>
<path id="c_b3a8b59ce25d33f84315ee39f6514694" d="M33.015625 -40.375q-6.640625 0.0 -10.53125 4.546875q-3.875 4.53125 -3.875 12.4375q0.0 7.859375 3.875 12.4375q3.890625 4.5625 10.53125 4.5625q6.640625 0.0 10.515625 -4.5625q3.875 -4.578125 3.875 -12.4375q0.0 -7.90625 -3.875 -12.4375q-3.875 -4.546875 -10.515625 -4.546875M52.59375 -71.296875l0.0 8.984375q-3.71875 -1.75 -7.5 -2.671875q-3.78125 -0.9375 -7.5 -0.9375q-9.765625 0.0 -14.921875 6.59375q-5.140625 6.59375 -5.875 19.921875q2.875 -4.25 7.21875 -6.515625q4.359375 -2.265625 9.578125 -2.265625q10.984375 0.0 17.359375 6.671875q6.375 6.65625 6.375 18.125q0.0 11.234375 -6.640625 18.03125q-6.640625 6.78125 -17.671875 6.78125q-12.65625 0.0 -19.34375 -9.6875q-6.6875 -9.703125 -6.6875 -28.109375q0.0 -17.28125 8.203125 -27.5625q8.203125 -10.28125 22.015625 -10.28125q3.71875 0.0 7.5 0.734375q3.78125 0.734375 7.890625 2.1875"/>
</defs>
<g style="fill: #000000; opacity: 1.0" transform="translate(22.584375,393.1671875)scale(0.12)">
<use xlink:href="#c_b3a8b59ce25d33f84315ee39f6514694"/>
</g>
<defs>
<path id="c_74ad5ae811677c4365c191f84676e05d" d="M8.203125 -72.90625l46.875 0.0l0.0 4.203125l-26.46875 68.703125l-10.296875 0.0l24.90625 -64.59375l-35.015625 0.0z"/>
</defs>
<g style="fill: #000000; opacity: 1.0" transform="translate(432.3875,476.695)scale(0.12)">
<use xlink:href="#c_74ad5ae811677c4365c191f84676e05d"/>
</g>
<g style="fill: #000000; opacity: 1.0" transform="translate(265.7765625,289.4871875)scale(0.12)">
<use xlink:href="#c_95f14088edd5858aea2c3b4aa58e4de2"/>
</g>
<g style="fill: #000000; opacity: 1.0" transform="translate(531.790625,289.495)scale(0.12)">
<use xlink:href="#c_2322e4f977aa11305e2465866d88750f"/>
</g>
<g style="fill: #000000; opacity: 1.0" transform="translate(208.41875,525.733125)scale(0.12)">
<use xlink:href="#c_eaed548a39c8bfc1ad9c7a767102867e"/>
</g>
<g style="fill: #000000; opacity: 1.0" transform="translate(25.925,182.9271875)scale(0.12)">
<use xlink:href="#c_1a789725981e3580f6e795985204066c"/>
</g>
<g style="fill: #000000; opacity: 1.0" transform="translate(432.0125,102.295)scale(0.12)">
<use xlink:href="#c_47a349c5fab6f63bcee0b405ba445c6f"/>
</g>
<g style="fill: #000000; opacity: 1.0" transform="translate(208.3640625,56.1290625)scale(0.12)">
<use xlink:href="#c_2f869442ca5f4cfa589132f61f547ba5"/>
</g>
<g style="fill: #000000; opacity: 1.0" transform="translate(22.584375,393.1671875)scale(0.12)">
<use xlink:href="#c_b3a8b59ce25d33f84315ee39f6514694"/>
</g>
<g style="fill: #000000; opacity: 1.0" transform="translate(432.3875,476.695)scale(0.12)">
<use xlink:href="#c_74ad5ae811677c4365c191f84676e05d"/>
</g>
<g style="fill: #000000; opacity: 1.0" transform="translate(265.7765625,289.4871875)scale(0.12)">
<use xlink:href="#c_95f14088edd5858aea2c3b4aa58e4de2"/>
</g>
<g style="fill: #000000; opacity: 1.0" transform="translate(432.590625,476.695)scale(0.12)">
<use xlink:href="#c_2322e4f977aa11305e2465866d88750f"/>
</g>
<g style="fill: #000000; opacity: 1.0" transform="translate(531.61875,289.573125)scale(0.12)">
<use xlink:href="#c_eaed548a39c8bfc1ad9c7a767102867e"/>
</g>
<g style="fill: #000000; opacity: 1.0" transform="translate(208.325,525.6471875)scale(0.12)">
<use xlink:href="#c_1a789725981e3580f6e795985204066c"/>
</g>
<g style="fill: #000000; opacity: 1.0" transform="translate(208.0125,56.215)scale(0.12)">
<use xlink:href="#c_47a349c5fab6f63bcee0b405ba445c6f"/>
</g>
<g style="fill: #000000; opacity: 1.0" transform="translate(25.9640625,182.8490625)scale(0.12)">
<use xlink:href="#c_2f869442ca5f4cfa589132f61f547ba5"/>
</g>
<g style="fill: #000000; opacity: 1.0" transform="translate(432.184375,102.2871875)scale(0.12)">
<use xlink:href="#c_b3a8b59ce25d33f84315ee39f6514694"/>
</g>
<g style="fill: #000000; opacity: 1.0" transform="translate(22.7875,393.175)scale(0.12)">
<use xlink:href="#c_74ad5ae811677c4365c191f84676e05d"/>
</g>
<g style="fill: #000000; opacity: 1.0" transform="translate(265.7765625,289.4871875)scale(0.12)">
<use xlink:href="#c_95f14088edd5858aea2c3b4aa58e4de2"/>
</g>
<g style="fill: #000000; opacity: 1.0" transform="translate(432.590625,476.695)scale(0.12)">
<use xlink:href="#c_2322e4f977aa11305e2465866d88750f"/>
</g>
<g style="fill: #000000; opacity: 1.0" transform="translate(531.61875,289.573125)scale(0.12)">
<use xlink:href="#c_eaed548a39c8bfc1ad9c7a767102867e"/>
</g>
<g style="fill: #000000; opacity: 1.0" transform="translate(208.325,525.6471875)scale(0.12)">
<use xlink:href="#c_1a789725981e3580f6e795985204066c"/>
</g>
<g style="fill: #000000; opacity: 1.0" transform="translate(208.0125,56.215)scale(0.12)">
<use xlink:href="#c_47a349c5fab6f63bcee0b405ba445c6f"/>
</g>
<g style="fill: #000000; opacity: 1.0" transform="translate(25.9640625,182.8490625)scale(0.12)">
<use xlink:href="#c_2f869442ca5f4cfa589132f61f547ba5"/>
</g>
<g style="fill: #000000; opacity: 1.0" transform="translate(432.184375,102.2871875)scale(0.12)">
<use xlink:href="#c_b3a8b59ce25d33f84315ee39f6514694"/>
</g>
<g style="fill: #000000; opacity: 1.0" transform="translate(22.7875,393.175)scale(0.12)">
<use xlink:href="#c_74ad5ae811677c4365c191f84676e05d"/>
</g>
<g style="fill: #000000; opacity: 1.0" transform="translate(265.7765625,289.4871875)scale(0.12)">
<use xlink:href="#c_95f14088edd5858aea2c3b4aa58e4de2"/>
</g>
<g style="fill: #000000; opacity: 1.0" transform="translate(26.190625,182.935)scale(0.12)">
<use xlink:href="#c_2322e4f977aa11305e2465866d88750f"/>
</g>
<g style="fill: #000000; opacity: 1.0" transform="translate(432.41875,102.373125)scale(0.12)">
<use xlink:href="#c_eaed548a39c8bfc1ad9c7a767102867e"/>
</g>
<g style="fill: #000000; opacity: 1.0" transform="translate(208.325,56.2071875)scale(0.12)">
<use xlink:href="#c_1a789725981e3580f6e795985204066c"/>
</g>
<g style="fill: #000000; opacity: 1.0" transform="translate(22.4125,393.175)scale(0.12)">
<use xlink:href="#c_47a349c5fab6f63bcee0b405ba445c6f"/>
</g>
<g style="fill: #000000; opacity: 1.0" transform="translate(432.3640625,476.6090625)scale(0.12)">
<use xlink:href="#c_2f869442ca5f4cfa589132f61f547ba5"/>
</g>
<g style="fill: #000000; opacity: 1.0" transform="translate(531.384375,289.4871875)scale(0.12)">
<use xlink:href="#c_b3a8b59ce25d33f84315ee39f6514694"/>
</g>
<g style="fill: #000000; opacity: 1.0" transform="translate(208.3875,525.655)scale(0.12)">
<use xlink:href="#c_74ad5ae811677c4365c191f84676e05d"/>
</g>
<g style="fill: #000000; opacity: 1.0" transform="translate(265.7765625,289.4871875)scale(0.12)">
<use xlink:href="#c_95f14088edd5858aea2c3b4aa58e4de2"/>
</g>
<g style="fill: #000000; opacity: 1.0" transform="translate(26.190625,182.935)scale(0.12)">
<use xlink:href="#c_2322e4f977aa11305e2465866d88750f"/>
</g>
<g style="fill: #000000; opacity: 1.0" transform="translate(432.41875,102.373125)scale(0.12)">
<use xlink:href="#c_eaed548a39c8bfc1ad9c7a767102867e"/>
</g>
<g style="fill: #000000; opacity: 1.0" transform="translate(208.325,56.2071875)scale(0.12)">
<use xlink:href="#c_1a789725981e3580f6e795985204066c"/>
</g>
<g style="fill: #000000; opacity: 1.0" transform="translate(22.4125,393.175)scale(0.12)">
<use xlink:href="#c_47a349c5fab6f63bcee0b405ba445c6f"/>
</g>
<g style="fill: #000000; opacity: 1.0" transform="translate(432.3640625,476.6090625)scale(0.12)">
<use xlink:href="#c_2f869442ca5f4cfa589132f61f547ba5"/>
</g>
<g style="fill: #000000; opacity: 1.0" transform="translate(531.384375,289.4871875)scale(0.12)">
<use xlink:href="#c_b3a8b59ce25d33f84315ee39f6514694"/>
</g>
<g style="fill: #000000; opacity: 1.0" transform="translate(208.3875,525.655)scale(0.12)">
<use xlink:href="#c_74ad5ae811677c4365c191f84676e05d"/>
</g>
</g>
</g>
</svg>
